<svg xmlns="http://www.w3.org/2000/svg" viewBox="0 0 164.344 293.065"><path d="M14.633 41.219c.605-.889 1.179-2.746 1.179-3.819v-4.009c-1.938.364-3.732 1.316-5.213 2.825-1.768 1.8-3.653 4.741-4.825 11.311 1.129.692 2.199 1.352 3.21 1.98L14.633 41.219zM147.072 139.187c5.83-3.425 10.019-6.122 10.276-6.288 2.733-1.764 3.548-5.372 1.877-8.138l-13.677 8.392C146.282 134.7 146.772 136.776 147.072 139.187zM45.665 283.232c0 5.432 4.404 9.832 9.832 9.832 5.43 0 9.834-4.4 9.834-9.832v-2.234c-6.083-.201-13.348-.627-19.666-1.507V283.232zM72.433 281.153v2.08c0 5.432 4.404 9.832 9.832 9.832 5.43 0 9.834-4.4 9.834-9.832v-2.574c-6.392.457-13.409.513-16.402.513C74.794 281.171 73.69 281.166 72.433 281.153zM59.246 78.258c-3.646-.278-6.895 3.303-7.802 4.403 3.742 5.653 10.152 9.385 17.438 9.385.872 0 1.726-.07 2.571-.174-1.557-1.659-2.964-3.673-4.195-6.082C64.815 81.011 62.12 78.477 59.246 78.258z"></path><path d="M59.474,75.266c3.987,0.304,7.505,3.385,10.456,9.159c1.461,2.859,3.168,5.083,5.09,6.702  c8.551-2.622,14.769-10.577,14.769-19.988c0-0.033-0.005-0.066-0.005-0.099l-10.992-2.446c-0.016,0.082-0.024,0.164-0.042,0.247  c-0.93,4.178-5.07,6.811-9.249,5.881c-4.178-0.93-6.811-5.07-5.881-9.249c0.018-0.082,0.046-0.16,0.067-0.241l-3.197-0.712  c0.155-0.818,0.174-1.63,0.074-2.417l4.081,0.908c1.7-2.681,4.947-4.149,8.224-3.42c3.277,0.729,5.595,3.436,5.997,6.585  l10.749,2.392c-0.658-5.36-3.335-10.091-7.259-13.405c0.952-2.092,2.612-3.271,5.427-2.274c9.697,3.438-2.98-6.194-11.878-5.052  c0.196-2.204,1.447-3.892,4.509-4.402c15.756-2.623-18.867-6.416-19.998,8.596c-2.027,0.9-3.875,2.117-5.502,3.581  c-0.116-0.031-0.229-0.07-0.347-0.096c-4.178-0.93-8.319,1.703-9.249,5.881c-0.667,2.996,0.504,5.965,2.757,7.753  c-0.062,0.654-0.1,1.316-0.1,1.987c0,3.121,0.703,6.072,1.929,8.732C51.642,78.014,55.185,74.953,59.474,75.266z M54.16,57.349  c3.167,0.705,5.163,3.844,4.458,7.011c-0.23,1.033-0.722,1.937-1.385,2.668l-8.293-8.293C50.305,57.5,52.226,56.919,54.16,57.349z   M47.149,61.808c0.225-1.012,0.701-1.902,1.344-2.625l8.289,8.289c-1.362,1.208-3.262,1.773-5.175,1.347  C48.44,68.114,46.444,64.975,47.149,61.808z"></path><path d="M66.598 63.496c-.542.677-.946 1.481-1.147 2.385-.705 3.168 1.292 6.306 4.458 7.011 1.804.402 3.598-.076 4.94-1.145L66.598 63.496zM67.401 66.29l.447-.447 4.489 4.489-.447.447L67.401 66.29zM72.462 61.423c-2.042-.454-4.069.219-5.443 1.6l8.302 8.302c.773-.765 1.346-1.75 1.599-2.891C77.625 65.267 75.628 62.127 72.462 61.423zM73.881 68.789L69.391 64.3l.447-.447 4.489 4.489L73.881 68.789z"></path><rect width=".633" height="6.349" x="51.637" y="61.012" transform="rotate(-45.001 51.953 64.187)"></rect><rect width=".632" height="6.349" x="53.627" y="59.021" transform="rotate(-45.001 53.942 62.196)"></rect><path d="M123.616,135.334c-3.793,0.879-6.954,1.2-8.147-0.352c-3.333-4.333-12.333-34.083-21.667-36.417  c-2.887-0.722-10.686-1.659-20.159-2.688c-3.033,8.795-4.343,51.108-10.174,50.188c-5.607-0.885-9.645-42.777-10.498-52.38  c-15.913-1.702-30.555-3.424-31.835-4.704c-0.589-0.589-1.792-25.875,2.458-25.625c1.413,0.083-0.511-1.601-3.698-3.881H9.34  c-1.614,0-2.908-0.694-3.548-1.905c-0.64-1.21-0.485-2.67,0.424-4.004l1.457-2.138c-3.259-2.046-5.704-3.531-5.704-3.531  s-3.5,26.167-1.167,33.833s-3.667,26.333,11.667,30c15.333,3.667,29,9,25.667,28c-3.333,19-1.667,124-5.333,132s61,8.667,69.667,5  c8.667-3.667,2.833-2.75,2.5-9.417c-0.333-6.667-12.167-128.583-8.833-124.917c3.333,3.667,7,25.333,25.667,16.333  s18,23.333,20.333,14.667c2.121-7.877,4.79-31.993,1.506-39.078l-11.104,6.813L123.616,135.334z"></path><path d="M114.183 127.534l3.111.947 15.278 9.933 31.772-19.493-1.949-1.885-.676.391c-1.182-1.621-2.924-3.206-3.005-3.278l-.354-.32-.467.101c-.676.147-3.565.826-5.174 2.041-7.419-8.996-12.47-9.661-12.687-9.686l-.292-.033-27.305 14.875L114.183 127.534zM151.926 117.954l.871 1.095.674-1.227c.352-.641 2.439-1.489 4.346-1.961.474.453 1.343 1.317 2.065 2.221l-6.405 3.707-12.5-9.091-24.34 13.635-.929-.283-1.089-3.992 25.452-13.865C141.155 108.478 145.659 110.078 151.926 117.954zM8.116 54.862C7.249 56.135 7.8 57.177 9.34 57.177h24.543c1.54 0 2.09-1.041 1.223-2.314l-8.417-12.348c-.867-1.273-1.577-3.574-1.577-5.115V26.488c0-.12-.021-.234-.036-.35h1.377v-3.326h-9.685v3.326h1.378c-.015.116-.036.23-.036.35V37.4c0 1.54-.71 3.842-1.578 5.115L8.116 54.862zM21.522 20.513c.456-.29.76-.796.76-1.376 0-.902-.731-1.634-1.634-1.634s-1.634.731-1.634 1.634c0 .58.304 1.086.76 1.376.253.161.552.258.874.258S21.269 20.674 21.522 20.513z"></path><circle cx="19.073" cy="9.51" r="2.509"></circle><path d="M24.265 2.509C24.265 1.123 23.142 0 21.757 0s-2.509 1.123-2.509 2.509 1.123 2.509 2.509 2.509S24.265 3.894 24.265 2.509zM24.129 15.092c1.106 0 2.003-.897 2.003-2.003 0-1.106-.897-2.003-2.003-2.003-1.106 0-2.003.897-2.003 2.003C22.126 14.195 23.023 15.092 24.129 15.092z"></path></svg>