<svg xmlns="http://www.w3.org/2000/svg" width="64" height="64" viewBox="0 0 64 64"><path d="M31.867 34.85c5.836 0 10.964-4.742 10.563-10.564-.198-2.894-.921-4.828-1.846-6.322-1.588 2.502-4.013 3.828-4.013 3.828 2.09-6.048-9.845-9.963-1.637-15.94-.177.097-2.159 1.197-4.569 3.12-5.529 5.402 3.385 7.865-1.288 14.31 0 0-2.474-2.017-3.039-4.47-.525-2.285-.139-4.476-.139-4.476s-1.559.783-2.509 2.476c-1.253 2.228-2.088 4.74-2.088 7.475C21.3 30.12 26.029 34.85 31.867 34.85zM48.724 36.898H15.276c-1.456 0-2.636 1.075-2.636 2.401 0 .676 0 3.719 0 3.719h1.105 1.105c2.157 8.194 8.957 14.184 17.027 14.184 8.07 0 14.87-5.99 17.027-14.184h1.229 1.229v-3.719C51.361 37.973 50.181 36.898 48.724 36.898z"></path></svg>