<svg xmlns="http://www.w3.org/2000/svg" width="32" height="32" viewBox="0 0 32 32"><path d="M 6.5 10.001953 C 5.668995 10.001953 5 10.670953 5 11.501953 C 5 12.156132 5.4181605 12.704104 6 12.910156 L 6 17.054688 L 5.78125 17.054688 A 11.5 2.5713427 0 0 0 8.0566406 20.388672 A 11.5 2.5713427 0 0 0 23.140625 20.349609 A 11.5 2.5713427 0 0 0 25.076172 17.005859 L 25 17.005859 L 25 12.910156 C 25.581839 12.704104 26 12.156132 26 11.501953 C 26 10.670953 25.331004 10.001953 24.5 10.001953 L 6.5 10.001953 z M 15.507812 13.720703 L 15.929688 14.548828 L 16.845703 14.708984 L 16.1875 15.365234 L 16.318359 16.285156 L 15.490234 15.861328 L 14.65625 16.271484 L 14.802734 15.353516 L 14.154297 14.685547 L 15.074219 14.542969 L 15.507812 13.720703 z " style="isolation:auto;mix-blend-mode:normal"></path></svg>