<svg xmlns="http://www.w3.org/2000/svg" width="64" height="64" viewBox="0 0 64 64"><path d="M50.58 33.859c.02 1.213.012 2.434-.029 3.622-.061 1.807-.203 3.548-.468 5.152l-.085.48c1.131-.098 2.148-.594 2.905-1.351.851-.854 1.375-2.026 1.375-3.32 0-1.286-.517-2.458-1.359-3.304C52.293 34.502 51.483 34.047 50.58 33.859L50.58 33.859zM13.563 30.783c.057-1.05.122-2.395.175-3.056.028-.348.228-.639.508-.798 5.217-3.479 11.475-5.424 17.754-5.424 6.275 0 12.533 1.945 17.754 5.424.281.159.48.45.509.798.053.661.114 2.006.171 3.056 2.12-.647 3.857-1.481 5.094-2.541 1.351-1.16 2.108-2.623 2.108-4.456 0-3.902-3.227-8.647-8.358-12.262C44.708 8.301 38.649 6.008 32 6.008c-6.645 0-12.708 2.293-17.273 5.516-5.135 3.615-8.358 8.36-8.358 12.262 0 1.833.753 3.296 2.108 4.456C9.713 29.302 11.447 30.136 13.563 30.783L13.563 30.783zM48.411 30.376l-.11-2.006C43.475 25.249 37.754 23.514 32 23.514s-11.475 1.735-16.301 4.856l-.11 2.006c2.238-1.079 4.647-1.974 7.187-2.623 2.921-.749 6.022-1.172 9.225-1.172 3.203 0 6.299.423 9.225 1.172C43.76 28.401 46.173 29.298 48.411 30.376L48.411 30.376zM48.578 33.697c-2.278 1.123-4.736 2.051-7.333 2.718-2.934.757-6.042 1.188-9.245 1.188-3.202 0-6.307-.431-9.245-1.188-2.592-.667-5.054-1.595-7.329-2.718-.021 1.253-.016 2.507.024 3.728.057 1.717.195 3.377.443 4.883.684 4.167 2.918 8.155 5.937 11.068C24.736 56.183 28.358 57.99 32 57.99s7.264-1.807 10.169-4.614c3.02-2.914 5.253-6.901 5.941-11.068.248-1.505.382-3.166.439-4.883C48.594 36.204 48.598 34.95 48.578 33.697L48.578 33.697zM14.002 43.113l-.085-.48c-.26-1.604-.403-3.345-.468-5.152-.041-1.188-.041-2.409-.024-3.629-.903.195-1.717.651-2.344 1.286-.838.847-1.359 2.019-1.359 3.304 0 1.294.529 2.466 1.375 3.32C11.854 42.519 12.871 43.015 14.002 43.113L14.002 43.113zM47.329 32.077c-2.059-.968-4.272-1.782-6.596-2.376-2.767-.71-5.697-1.111-8.732-1.111-3.031 0-5.965.401-8.729 1.111-2.327.594-4.541 1.408-6.596 2.376 2.055.985 4.261 1.807 6.572 2.401 2.767.716 5.705 1.115 8.753 1.115 3.052 0 5.99-.407 8.753-1.115C43.068 33.884 45.273 33.062 47.329 32.077L47.329 32.077zM121.896 15.812h8.386c2.208 0 4.009 1.797 4.009 4.005v4.931c2.311.501 4.584 1.104 6.829 1.83-1.002-5.065-3.5-9.6-7.012-13.112-9.946-9.946-26.27-9.946-36.216 0-3.512 3.512-6.014 8.043-7.017 13.112 2.246-.726 4.527-1.333 6.83-1.826v-4.935c0-2.204 1.809-4.005 4.009-4.005h8.39c2.205 0 4.005 1.797 4.005 4.005v3.068c1.263-.024 2.518-.021 3.777 0v-3.068C117.887 17.609 119.688 15.812 121.896 15.812L121.896 15.812zM141.462 28.802c-2.355-.807-4.743-1.463-7.171-2.005v1.41c0 2.205-1.801 4.006-4.009 4.006h-8.386c-2.2 0-4.009-1.81-4.009-4.006v-3.321c-1.259-.024-2.522-.028-3.777 0v3.321c0 2.205-1.801 4.006-4.005 4.006h-8.39c-2.208 0-4.009-1.801-4.009-4.006v-1.41c-2.42.538-4.825 1.202-7.167 2.009-.236 2.208-.188 4.45.146 6.65.143.954.338 1.882.587 2.795 14.966-5.02 34.492-5.02 49.458 0 .245-.913.444-1.842.587-2.795C141.65 33.264 141.703 31.006 141.462 28.802L141.462 28.802zM130.282 17.817h-8.386c-1.096 0-2 .905-2 2v8.39c0 1.104.896 2.001 2 2.001h8.386c1.1 0 2.005-.905 2.005-2.001v-8.39C132.287 18.722 131.382 17.817 130.282 17.817L130.282 17.817zM110.104 17.817h-8.39c-1.1 0-1.997.896-1.997 2v8.39c0 1.096.9 2.001 1.997 2.001h8.39c1.096 0 2-.905 2-2.001v-8.39C112.104 18.722 111.2 17.817 110.104 17.817L110.104 17.817zM137.645 39.384c-1.137-.326-2.306-.628-3.508-.905-.061 1.524-.191 3.04-.44 4.556l-.053.31C135.729 43.108 137.384 41.47 137.645 39.384L137.645 39.384zM98.357 43.345l-.057-.31c-.249-1.508-.375-3.032-.44-4.556-1.198.277-2.363.579-3.504.905C94.616 41.462 96.271 43.108 98.357 43.345L98.357 43.345zM132.152 38.047c-10.325-2.078-21.979-2.078-32.304 0 .057 1.548.175 3.129.428 4.662.668 4.075 2.848 7.962 5.794 10.806 6.181 5.981 13.674 5.981 19.855 0 2.946-2.844 5.126-6.74 5.794-10.806C131.973 41.177 132.091 39.596 132.152 38.047L132.152 38.047zM220.805 32.371c.016 1.032.012 2.069-.008 3.094-.052 2.301-.217 4.55-.625 6.816 1.21-.103 2.301-.64 3.109-1.449 1.944-1.943 1.952-5.139.017-7.09C222.626 33.065 221.767 32.579 220.805 32.371L220.805 32.371zM182.218 42.28c-.408-2.262-.569-4.519-.625-6.816-.02-1.021-.02-2.058-.004-3.094-.962.208-1.826.695-2.493 1.374-1.936 1.951-1.924 5.143.016 7.086C179.921 41.636 181.013 42.174 182.218 42.28L182.218 42.28zM183.785 27.209c-.228 2.634-.243 5.656-.185 8.215.153 7.02 1.484 12.568 6.789 17.699 6.721 6.502 14.888 6.502 21.613 0 5.3-5.127 6.635-10.683 6.788-17.699.059-2.611.039-5.563-.185-8.215H183.785L183.785 27.209zM220.737 8.219c-2.249-1.278-5.496-2.089-9.894-2.199-8.398-.206-16.553 1.52-22.96 4.067-7.067 2.81-11.943 6.523-12.517 9.611-.208 1.139-.212 2.515.66 3.549.934 1.119 2.905 1.951 6.698 1.951h36.65c2.359-2.32 4.056-4.902 4.856-7.405.617-1.917.703-3.783.153-5.424C223.843 10.749 222.661 9.31 220.737 8.219L220.737 8.219zM300.956 36.317c.013.912.009 1.823-.016 2.727-.045 1.79-.18 3.532-.439 5.111l-.054.317c.924-.122 1.75-.545 2.373-1.164l.016-.016.004-.008c.749-.749 1.217-1.791 1.217-2.938s-.464-2.189-1.208-2.938C302.332 36.887 301.685 36.504 300.956 36.317L300.956 36.317zM267.553 44.472l-.058-.317c-.26-1.579-.391-3.321-.439-5.119-.024-.895-.024-1.807-.016-2.718-.725.187-1.376.578-1.889 1.09-.744.757-1.204 1.791-1.204 2.938 0 1.14.46 2.181 1.204 2.93l.013.008.004.008C265.795 43.918 266.625 44.35 267.553 44.472L267.553 44.472zM298.93 35.17c-4.952 1.986-9.916 2.987-14.893 2.987-4.985 0-9.974-.993-14.967-2.995-.037 1.286-.045 2.58-.013 3.833.049 1.701.171 3.353.415 4.842.619 3.76 2.638 7.357 5.359 9.994 2.621 2.531 5.889 4.159 9.168 4.159 3.275 0 6.543-1.627 9.164-4.159 2.722-2.637 4.74-6.234 5.358-9.994.244-1.489.371-3.133.415-4.842C298.971 37.742 298.962 36.456 298.93 35.17L298.93 35.17zM270.376 33.526c4.566 1.75 9.123 2.629 13.661 2.629 4.532 0 9.069-.879 13.603-2.629H270.376L270.376 33.526zM280.468 8.23c1.144-.214 2.328-.324 3.532-.324s2.385.11 3.532.324c-.212-.444-.509-.842-.863-1.172C285.974 6.407 285.033 6.01 284 6.01s-1.978.396-2.669 1.048C280.973 7.388 280.68 7.786 280.468 8.23L280.468 8.23zM266.653 31.516h34.689v-4.25c0-4.767-1.921-9.086-5.029-12.222l-.049-.045c-3.138-3.14-7.476-5.083-12.265-5.083s-9.131 1.943-12.265 5.083l-.004-.002c-3.138 3.137-5.078 7.477-5.078 12.269V31.516L266.653 31.516zM373.512 9.51v13.098c0 1.52-.62 2.901-1.612 3.897-.997.995-2.378 1.613-3.9 1.613-1.521 0-2.903-.618-3.896-1.613-.996-.996-1.612-2.377-1.612-3.897V9.51c0-.208.008-.412.031-.612-3.837.963-6.634 2.972-8.576 5.554-2.66 3.539-3.759 8.186-3.759 12.725l0 0c0 .545-.439.993-.988 1-.565.01-1.114.204-1.562.54l-.004-.002-.004.002c-.416.31-.745.744-.926 1.267l-.023.075c-.228.712-.142 1.45.173 2.06.278.538.733.977 1.317 1.236 6.572-2.46 13.167-3.698 19.781-3.702 6.61-.002 13.241 1.228 19.871 3.702.589-.251 1.044-.698 1.322-1.236.313-.61.4-1.348.173-2.06h.004c-.169-.54-.495-.989-.91-1.311l-.048-.031c-.431-.322-.953-.514-1.49-.538l-.059.002c-.554 0-1.005-.451-1.005-1.004 0-4.539-1.095-9.186-3.759-12.725-1.938-2.58-4.734-4.588-8.575-5.552C373.5 9.1 373.512 9.304 373.512 9.51L373.512 9.51zM351.996 37.755c-.643.181-1.22.526-1.675.989-.69.698-1.114 1.655-1.114 2.715 0 1.067.432 2.032 1.13 2.73.562.557 1.299.949 2.122 1.083l-.035-.22c-.259-1.554-.38-3.272-.42-5.045C351.988 39.262 351.984 38.509 351.996 37.755L351.996 37.755zM383.531 45.272c.828-.134 1.565-.518 2.13-1.083.699-.698 1.13-1.664 1.13-2.73 0-1.06-.427-2.017-1.117-2.715-.46-.463-1.032-.808-1.676-.989.008.753.008 1.499-.008 2.244-.039 1.773-.165 3.5-.424 5.053L383.531 45.272 383.531 45.272zM354.637 33.393h26.693c-4.473-1.161-8.929-1.74-13.378-1.738C363.511 31.657 359.07 32.239 354.637 33.393L354.637 33.393zM381.985 39.96c.031-1.326.012-3.107-.035-4.559h-27.91c-.043 1.452-.063 3.233-.031 4.567.035 1.679.149 3.303.393 4.771.577 3.515 2.468 6.889 5.018 9.353 2.452 2.377 5.513 3.899 8.576 3.899 3.068 0 6.124-1.522 8.576-3.892 2.555-2.472 4.441-5.846 5.021-9.361C381.833 43.271 381.95 41.647 381.985 39.96L381.985 39.96zM371.503 22.608V9.51c0-.965-.393-1.842-1.028-2.476-.632-.634-1.51-1.026-2.476-1.026-.965 0-1.844.392-2.476 1.026-.632.633-1.023 1.51-1.023 2.476v13.098c0 .967.392 1.844 1.023 2.476.632.633 1.511 1.026 2.476 1.026.966 0 1.844-.393 2.476-1.026C371.11 24.452 371.503 23.575 371.503 22.608L371.503 22.608zM46.197 117.123H17.803c-.049 1.433-.065 2.881-.037 4.289.041 1.685.159 3.32.399 4.785.59 3.581 2.51 7.007 5.106 9.514 2.495 2.417 5.607 3.972 8.729 3.972 3.125 0 6.234-1.555 8.732-3.972 2.592-2.507 4.517-5.933 5.103-9.514.245-1.465.362-3.101.403-4.793C46.267 120.004 46.246 118.556 46.197 117.123L46.197 117.123zM48.155 119.206c.008.749.004 1.498-.012 2.238v.009c-.041 1.773-.167 3.491-.423 5.045l-.085.48c.891-.114 1.693-.521 2.295-1.115l.016-.016h.004c.712-.717 1.156-1.709 1.156-2.808 0-1.091-.439-2.075-1.148-2.792C49.465 119.752 48.846 119.386 48.155 119.206L48.155 119.206zM16.366 126.979l-.085-.48c-.252-1.554-.382-3.279-.423-5.054-.016-.74-.02-1.489-.008-2.238-.692.188-1.311.546-1.799 1.042-.708.717-1.147 1.701-1.147 2.792 0 1.09.439 2.083 1.144 2.791l.012.017h.004C14.666 126.449 15.471 126.864 16.366 126.979L16.366 126.979zM7.906 113.273c-.826.554-1.473 1.221-1.782 1.938h51.752c-.31-.717-.952-1.384-1.782-1.938-1.408-.936-3.309-1.521-5.115-1.521l0 0c-.488 0-.903-.375-.948-.871-.354-3.895-1.965-7.431-4.452-10.189-2.47-2.75-5.814-4.729-9.664-5.534-.342-.049-.651-.276-.777-.626-.232-.651-.663-1.213-1.217-1.604-.541-.383-1.204-.606-1.92-.606s-1.379.224-1.917.606c-.554.391-.989.952-1.221 1.604l-.004-.004c-.11.305-.37.549-.704.614-3.874.797-7.243 2.783-9.733 5.55-2.466 2.743-4.073 6.246-4.444 10.108 0 .528-.431.952-.956.952C11.219 111.752 9.314 112.338 7.906 113.273L7.906 113.273zM104.346 111.088c1.29-.342 2.552-.896 3.825-1.457 2.352-1.041 4.761-2.104 7.829-2.104s5.477 1.063 7.833 2.104c1.274.562 2.535 1.115 3.821 1.457-.195-2.177-.488-4.798-1.074-7.21-.688-2.796-1.766-5.339-3.541-6.56v-.005c-.83-.565-2.901-.244-4.606.024l-.017.005c-.94.146-1.791.28-2.417.26-.626.021-1.477-.113-2.417-.26-1.685-.269-3.74-.591-4.59-.049l-.028.024c-1.778 1.221-2.856 3.764-3.54 6.56C104.838 106.29 104.541 108.911 104.346 111.088L104.346 111.088zM116.049 95.678h.016H116.049L116.049 95.678zM105.375 117.062c-.073 1.188-.098 2.479-.069 3.739.033 1.404.138 2.788.33 3.972.444 2.686 1.884 5.258 3.829 7.146l.012.013c1.872 1.811 4.199 2.97 6.523 2.97s4.651-1.163 6.519-2.966c1.953-1.893 3.401-4.468 3.841-7.162.195-1.184.301-2.571.333-3.979.033-1.258.004-2.547-.065-3.731H116 105.375L105.375 117.062zM104.436 115.052H116h11.564.004c3.434 0 7.088-.676 9.847-2.597 1.074-.744 2.019-1.692 2.767-2.873-.533.452-1.111.871-1.717 1.254-2.555 1.615-5.693 2.588-8.594 2.551-.875-.012-1.733-.113-2.543-.317-1.53-.378-2.91-.988-4.305-1.603-2.161-.957-4.37-1.929-7.023-1.929s-4.863.972-7.02 1.929c-1.399.614-2.775 1.225-4.305 1.603-.813.204-1.668.306-2.547.317-2.901.037-6.035-.936-8.594-2.551-.606-.383-1.184-.806-1.717-1.258.749 1.185 1.693 2.129 2.767 2.877 2.763 1.921 6.413 2.597 9.847 2.597H104.436L104.436 115.052zM128.712 119.698c0 .383-.004.761-.016 1.144-.033 1.433-.138 2.856-.333 4.098.452-.126.858-.358 1.184-.671l.044-.045c.501-.505.814-1.201.814-1.966v-.024c-.008-.749-.313-1.428-.797-1.921C129.355 120.053 129.05 119.845 128.712 119.698L128.712 119.698zM103.634 124.936c-.191-1.237-.297-2.657-.33-4.086-.012-.382-.012-.769-.012-1.151-.342.146-.647.354-.903.614-.488.497-.79 1.188-.79 1.945 0 .765.309 1.461.814 1.966C102.747 124.557 103.166 124.806 103.634 124.936L103.634 124.936zM184.403 109.266h31.198c-.098-.558-.191-1.14-.289-1.733-.699-4.317-1.501-9.225-3.991-11.568-1.893-1.782-6.58-2.678-11.321-2.678-4.74 0-9.428.896-11.316 2.678-2.49 2.344-3.292 7.251-3.996 11.568C184.59 108.126 184.5 108.708 184.403 109.266L184.403 109.266zM215.576 118.376c.024 1.172.024 2.349-.017 3.491-.044 1.29-.138 2.544-.305 3.716.744-.143 1.412-.509 1.925-1.021v-.004c.671-.668 1.09-1.604 1.09-2.633 0-1.025-.415-1.953-1.082-2.625-.411-.419-.924-.736-1.493-.924H215.576L215.576 118.376zM186.396 118.376c-.024 1.156-.024 2.308.012 3.427.049 1.416.159 2.783.366 4.021.562 3.426 2.397 6.701 4.879 9.098 2.385 2.304 5.351 3.789 8.33 3.789s5.945-1.481 8.329-3.784c2.482-2.401 4.317-5.677 4.879-9.103.208-1.237.322-2.604.366-4.021.041-1.119.041-2.271.017-3.427H186.396L186.396 118.376zM184.712 125.574c-.167-1.167-.26-2.421-.305-3.707-.037-1.143-.037-2.314-.016-3.491h-.085c-.57.188-1.083.509-1.498.924-.663.672-1.074 1.6-1.074 2.625 0 1.029.415 1.961 1.09 2.633C183.329 125.066 183.979 125.428 184.712 125.574L184.712 125.574z"></path><polygon points="216.483 111.271 183.516 111.271 176.204 116.37 223.8 116.37 216.483 111.271"></polygon><polygon points="172.432 116.55 172.444 116.541 172.432 116.55"></polygon><path d="M200,97.607c0.627,0,1.201,0.253,1.616,0.668l0.004,0.004c0.415,0.415,0.672,0.988,0.672,1.615 c0,0.631-0.257,1.204-0.672,1.619h-0.004c-0.415,0.411-0.989,0.668-1.616,0.668c-0.626,0-1.2-0.257-1.615-0.668l0,0 c-0.415-0.415-0.675-0.988-0.675-1.619c0-0.627,0.26-1.2,0.675-1.615v-0.004C198.799,97.86,199.373,97.607,200,97.607L200,97.607z"></path><path d="M200 99.536c-.203 0-.358.155-.358.358s.159.358.358.358c.204 0 .362-.155.362-.358S200.203 99.536 200 99.536L200 99.536zM207.946 97.607c.627 0 1.196.253 1.611.668l.005.004c.415.415.671.988.671 1.615 0 .631-.256 1.204-.671 1.619l0 0c-.415.411-.989.668-1.616.668-.63 0-1.204-.257-1.615-.668h-.004c-.415-.415-.672-.988-.672-1.619 0-.627.257-1.2.672-1.615l.004-.004C206.746 97.86 207.32 97.607 207.946 97.607L207.946 97.607z"></path><path d="M207.946 99.536c-.203 0-.361.155-.361.358s.158.358.361.358c.2 0 .358-.155.358-.358S208.15 99.536 207.946 99.536L207.946 99.536zM192.053 97.607c.626 0 1.205.253 1.62.668v.004c.415.415.671.988.671 1.615 0 .631-.256 1.204-.671 1.619l0 0c-.415.411-.989.668-1.62.668-.626 0-1.196-.257-1.611-.668h-.004c-.416-.415-.672-.988-.672-1.619 0-.627.256-1.2.672-1.615l.004-.004C190.856 97.86 191.43 97.607 192.053 97.607L192.053 97.607z"></path><path d="M192.053 99.536c-.204 0-.358.155-.358.358s.159.358.358.358c.204 0 .362-.155.362-.358S192.26 99.536 192.053 99.536L192.053 99.536zM299.963 121.48c.043 2.487.031 4.92-.385 7.51.805-.134 1.522-.519 2.075-1.067.698-.698 1.13-1.664 1.13-2.73 0-1.06-.428-2.017-1.118-2.715C301.202 122.015 300.614 121.661 299.963 121.48L299.963 121.48zM268.424 128.99c-.42-2.582-.428-5.022-.381-7.51-.658.181-1.247.534-1.71 1.005-.687.69-1.114 1.647-1.114 2.707 0 1.066.432 2.032 1.13 2.73C266.897 128.472 267.62 128.856 268.424 128.99L268.424 128.99zM297.915 119.417h-27.831l-.017.934c-.063 2.825-.121 5.556.346 8.388.581 3.523 2.464 6.89 5.018 9.361 2.452 2.369 5.505 3.892 8.572 3.892 3.064 0 6.116-1.522 8.568-3.892 2.55-2.472 4.438-5.838 5.018-9.361.467-2.84.408-5.555.346-8.38L297.915 119.417 297.915 119.417zM297.322 117.408c-4.469-1.161-8.925-1.741-13.366-1.737-4.441 0-8.874.58-13.308 1.737H297.322L297.322 117.408zM264.19 117.361c6.568-2.46 13.159-3.691 19.766-3.695 6.603-.004 13.226 1.228 19.852 3.695.588-.251 1.052-.698 1.326-1.231.313-.608.4-1.346.177-2.061h.004c-.173-.533-.499-.984-.914-1.31l-.048-.031c-.428-.318-.949-.511-1.49-.534h-.056c-.553 0-1.004-.447-1.004-1.004 0-4.583-1.118-9.282-3.849-12.837-2.052-2.676-5.053-4.724-9.212-5.595v7.87c.099.086.196.177.29.271l.004.004c1.291 1.291 2.088 3.068 2.088 5.033 0 1.962-.801 3.747-2.092 5.034h.004c-1.286 1.286-3.067 2.087-5.033 2.087-1.97 0-3.75-.801-5.037-2.087l0 0c-1.287-1.287-2.087-3.072-2.087-5.034 0-1.965.8-3.742 2.087-5.033l.004-.004c.094-.094.192-.185.286-.271v-7.87c-4.158.871-7.156 2.919-9.212 5.595-2.723 3.555-3.845 8.254-3.845 12.837h-.004c0 .545-.436.996-.984 1.004-.565.008-1.114.204-1.562.534l0 0h-.004c-.42.313-.749.745-.93 1.271l-.023.07c-.228.715-.142 1.452.177 2.061C263.144 116.663 263.603 117.11 264.19 117.361L264.19 117.361zM284.003 98.816c.965 0 1.892.188 2.73.541V90.68c0-.181-.074-.354-.192-.471l-.004-.008c-.121-.118-.29-.192-.475-.192h-4.123c-.181 0-.354.074-.471.2-.126.117-.2.29-.2.471v8.678C282.112 99.005 283.034 98.816 284.003 98.816L284.003 98.816zM287.616 102.315c-.922-.922-2.201-1.49-3.613-1.49-1.416 0-2.695.568-3.617 1.49l-.004.008c-.922.919-1.494 2.197-1.494 3.613 0 1.413.572 2.695 1.494 3.613h.004c.926.927 2.205 1.499 3.617 1.499 1.408 0 2.688-.572 3.613-1.499h.004c.922-.918 1.495-2.2 1.495-3.613 0-1.416-.573-2.694-1.495-3.613L287.616 102.315 287.616 102.315zM381.493 100.582l-1.473-2.002c-.09.012-.191.061-.297.134l0 0c-.704.525-2.686 2.58-3.829 4.484-.558.932-.912 1.746-.7 2.035.212.284 1.091.187 2.152-.073 2.157-.529 4.717-1.819 5.416-2.336l0 0c.098-.073.171-.163.212-.236l-1.478-2.002L381.493 100.582 381.493 100.582zM381.542 97.29l1.559 2.116h-.004l1.559 2.107.004.008c.354.48.411 1.074.22 1.652l0 0c-.154.46-.48.916-.936 1.254l-.009.004c-.802.594-3.707 2.071-6.12 2.661-1.79.436-3.426.398-4.228-.684-.793-1.078-.346-2.653.603-4.232 1.277-2.128 3.548-4.468 4.354-5.062l.004-.004c.456-.334.989-.513 1.478-.521.606-.016 1.16.216 1.51.692L381.542 97.29 381.542 97.29zM352.892 99.406l1.563-2.116v-.008c.354-.477.907-.708 1.514-.692.488.009 1.021.188 1.477.521l.004.004c.806.594 3.077 2.934 4.354 5.062.948 1.579 1.396 3.154.603 4.232-.802 1.082-2.438 1.119-4.229.684-2.413-.59-5.318-2.067-6.124-2.661l-.004-.004c-.456-.338-.777-.794-.936-1.254l0 0c-.191-.578-.135-1.172.215-1.652l.009-.008L352.892 99.406 352.892 99.406 352.892 99.406zM355.972 98.58l-1.474 2.002-.004.004-1.477 2.002c.036.073.109.163.216.236l0 0c.695.517 3.255 1.807 5.411 2.336 1.059.26 1.941.357 2.149.073.215-.289-.139-1.104-.696-2.035-1.144-1.904-3.125-3.959-3.829-4.484l0 0C356.163 98.641 356.057 98.592 355.972 98.58L355.972 98.58zM367.996 93.771h-2.49c-.041.077-.065.183-.065.313 0 .94.122 4.933 1.018 7.658.402 1.213.915 2.124 1.538 2.141.627-.017 1.135-.928 1.534-2.141h.004c.891-2.726 1.013-6.718 1.013-7.658 0-.13-.02-.235-.061-.313H367.996L367.996 93.771zM365.367 91.772h2.629 2.629c.594 0 1.114.313 1.465.813l0 0c.28.398.455.928.455 1.497 0 1.001-.134 5.282-1.119 8.277l0 0c-.654 1.994-1.721 3.491-3.422 3.508h-.016c-1.701-.017-2.764-1.514-3.419-3.508-.984-2.995-1.123-7.276-1.123-8.277 0-.569.175-1.099.456-1.497l0 0C364.252 92.086 364.773 91.772 365.367 91.772L365.367 91.772zM368 112.387h-.126c-6.218.004-12.415.496-18.588 1.469 6.12 1.668 12.265 2.507 18.438 2.515H368h.281c6.168-.008 12.313-.847 18.437-2.515-6.177-.973-12.374-1.465-18.588-1.469H368L368 112.387zM386.218 127.471c1.204-.081 2.291-.602 3.097-1.399l0 0h.004c.867-.871 1.408-2.075 1.408-3.41s-.537-2.531-1.4-3.401c-.635-.644-1.448-1.107-2.355-1.311.008 1.033-.004 2.059-.037 3.068-.061 1.839-.211 3.621-.476 5.249C386.389 126.674 386.312 127.072 386.218 127.471L386.218 127.471zM349.025 117.949c-.911.203-1.722.667-2.356 1.311-.858.87-1.396 2.066-1.396 3.401 0 1.311.521 2.49 1.359 3.361l.057.049c.798.798 1.885 1.318 3.089 1.399-.094-.398-.175-.797-.24-1.204-.265-1.628-.411-3.402-.472-5.241C349.025 120.017 349.018 118.982 349.025 117.949L349.025 117.949zM351.04 116.403c-.037 1.529-.041 3.067.012 4.557l0 0c.057 1.758.195 3.451.452 4.989.699 4.265 2.986 8.342 6.075 11.328 2.979 2.882 6.689 4.729 10.421 4.729s7.442-1.847 10.417-4.729c3.089-2.986 5.371-7.063 6.075-11.328.253-1.538.395-3.239.452-4.997.053-1.489.049-3.02.012-4.549-5.497 1.285-11.471 1.953-16.675 1.953H368h-.276C362.515 118.356 356.537 117.688 351.04 116.403L351.04 116.403zM368 89.994L368 89.994c-6.751 0-12.114 2.429-15.846 6.417-3.76 4.024-5.892 9.647-6.145 15.983 7.243-1.318 14.531-1.989 21.864-1.994H368h.13c7.329.005 14.617.676 21.86 1.994-.249-6.336-2.381-11.959-6.145-15.983-3.728-3.988-9.091-6.417-15.842-6.417H368L368 89.994z"></path></svg>