<svg xmlns="http://www.w3.org/2000/svg" xmlns:xlink="http://www.w3.org/1999/xlink" id="Capa_1" x="0px" y="0px" viewBox="0 0 490 490" style="enable-background:new 0 0 490 490;" xml:space="preserve"><g>	<g>		<g>			<path d="M348.8,230.4v-80c0-11.2-14-10.1-14-10.1L407,0H296.3l-40,78.5l31.9,62.2h-22.5L193.7,0H83l71.9,140.7    c0,0-14-2.4-14,10.1v80c-28.8,27.2-46.6,66.1-46.6,108.8c0,83.2,67.2,150.4,150.4,150.4S395,422.8,395,339.6    C395.4,296.5,377.5,258,348.8,230.4z M161.1,160.5H329v54c-24.1-16.3-52.8-25.6-83.9-25.6s-59.8,9.3-83.9,25.6v-54H161.1z     M245,445.3c-58.7,0-106.1-47.4-106.1-106.1S186.3,233.1,245,233.1s106.1,47.4,106.1,106.1S303.7,445.3,245,445.3z"></path>			<circle cx="245" cy="337.7" r="82.8"></circle>		</g>	</g></g><g></g><g></g><g></g><g></g><g></g><g></g><g></g><g></g><g></g><g></g><g></g><g></g><g></g><g></g><g></g></svg>